<?xml version="1.0" encoding="UTF-8"?>
<svg id="Layer_1" xmlns="http://www.w3.org/2000/svg" version="1.1" viewBox="0 0 4665.16 927.36">
  <!-- Generator: Adobe Illustrator 29.5.1, SVG Export Plug-In . SVG Version: 2.1.0 Build 141)  -->
  <defs>
    <style>
      .st0 {
        fill: #fff;
      }
    </style>
  </defs>
  <g>
    <path class="st0" d="M882.06,136.5c11.98,11.99,23.56,21.84,41.17,21.87,30.57.05,61.15.07,91.72.05,10.34-.02,17.89.44,22.66,1.36,29.49,5.7,52.89,29.12,59.1,58.35,1.02,4.78,1.52,11.48,1.52,20.09,0,189.52.01,379.03.01,568.55,0,7.84-.5,14.02-1.49,18.55-5.64,25.71-25.72,46.81-51.82,52.76-4.78,1.09-11.97,1.65-21.57,1.67-12.85.03-25.69.04-38.54.03-10.43,0-17.97-.49-22.64-1.44-27.31-5.57-48.9-27.97-53.74-55.26-.79-4.41-1.18-11.96-1.18-22.66,0-18.67-.03-37.34-.06-56-.02-9.34-.55-16.41-1.61-21.21-5.59-25.19-26.82-46.92-51.88-51.94-16.28-3.26-35.08-3.24-49.22,5.65-3.21,2.02-7.83,6.04-13.84,12.06-34.02,34.08-68.11,68.1-102.25,102.06-11.81,11.74-26.82,12.63-39.04.42-31.93-31.95-63.88-63.9-95.85-95.83-7.31-7.31-12.99-12.3-17.04-14.95-40.37-26.5-94.32-3.51-104.6,43.2-1.02,4.67-1.54,11.29-1.55,19.87v66.1c0,33.06-22.15,61.15-54.43,68.35-4.62,1.03-11.06,1.55-19.33,1.57-14.42.02-28.83.03-43.25.01-8.55-.02-15.17-.54-19.86-1.58-25.8-5.7-46.65-26.07-52.57-52.06-1.04-4.57-1.56-11.16-1.56-19.76-.02-188.51-.02-377.02-.01-565.53,0-10.27.49-17.82,1.48-22.65,6.01-29.48,29.89-52.34,58.88-58.31,4.87-1,11.65-1.5,20.36-1.49,30.6.04,61.21.03,91.8-.03,15.38-.02,26.64-5.31,37.52-16.04,25.13-24.78,50.13-49.69,75.02-74.7,14.55-14.64,24.02-20.01,44.1-20.02,68.58-.03,137.17-.03,205.74-.01,16.02,0,26.44,7.56,38.38,19.49,23.16,23.13,46.31,46.28,69.45,69.43ZM864.09,386.35c0-107.86-87.44-195.31-195.31-195.31-107.86,0-195.31,87.44-195.31,195.31s87.44,195.31,195.31,195.31,195.31-87.44,195.31-195.31ZM1027.17,262.92c0-18.45-14.96-33.41-33.41-33.41h0c-18.45,0-33.41,14.96-33.41,33.41h0c0,18.45,14.96,33.41,33.41,33.41h0c18.45,0,33.41-14.96,33.41-33.41h0Z"/>
    <circle class="st0" cx="668.78" cy="386.35" r="135.49"/>
  </g>
  <g>
    <path class="st0" d="M1410.02,475.17c1.13-.8,1.9-2,2.16-3.35,19.08-94.68,38.24-189.29,57.49-283.83,1.67-8.19,3.88-14.6,6.63-19.23,21.82-36.6,79.18-31.26,91.21,10.68,1.62,5.69,2.44,15.86,2.44,30.5.03,98.32.03,196.75,0,295.27,0,1.2-.98,2.18-2.18,2.18h-30.52c-.76,0-1.14-.38-1.14-1.14-.04-100.24-.04-200.47,0-300.67,0-16.01-.78-27.6-19.64-27.56-8.51.04-11.54,6.93-13.17,14.95-18.54,91.46-37.16,182.92-55.86,274.36-2.34,11.47-4.9,19.44-7.67,23.91-19.74,31.88-67.23,23.13-74.66-13.53-19.09-94.05-38.15-188.11-57.19-282.18-2.75-13.58-7.5-21.97-22.88-15.82-7.96,3.2-10,8.11-10,16.82-.03,103.05-.04,206.15-.02,309.29,0,.87-.69,1.57-1.55,1.57h-30.8c-.87,0-1.57-.7-1.57-1.57.04-100.89.04-201.87-.02-302.94,0-10.9.95-19.24,2.86-25.02,13.17-39.95,68.84-45.65,90.34-9.68,2.88,4.84,5.29,12.03,7.22,21.56,18.77,92.97,37.46,185.97,56.07,278.98,1.33,6.69,5.72,11.23,12.45,6.44Z"/>
    <path class="st0" d="M2497.6,397.77h-115.82c-1.88,0-3.51,1.28-3.96,3.11l-26.1,105.27c-.18.72-.81,1.23-1.55,1.23h-30.33c-1.24,0-2.25-1.01-2.25-2.25,0-.18.02-.36.06-.53,26.93-111.08,53.63-220.96,80.11-329.65,8.71-35.75,57.85-41.43,77.61-11.88,2.95,4.41,5.44,10.77,7.48,19.08,26.27,107.55,52.52,215.13,78.77,322.76.26,1.07-.4,2.14-1.47,2.4-.16.04-.32.06-.48.06h-31.16c-.67,0-1.25-.45-1.42-1.1l-26.35-106.03c-.36-1.46-1.66-2.48-3.16-2.48ZM2448.71,184.83c-1.65-6.8-9.68-8.39-14.76-5-3.45,2.31-4.07,7.05-5.02,10.91-14.04,56.82-28.01,113.8-41.92,170.93-.45,1.82.26,2.73,2.14,2.73h102.2c.51,0,.93-.41.94-.93,0-.07,0-.14-.02-.21-14.6-59.58-29.12-119.05-43.55-178.43Z"/>
    <path class="st0" d="M3890.89,188.6c-2.97-14.62-21.84-13.05-28.55-3.22-1.81,2.64-2.71,6.4-2.71,11.27.06,102.49.06,205.02.02,307.6,0,2.09-1.04,3.13-3.11,3.13h-28.62c-1.5,0-2.24-.75-2.22-2.25.34-33.06-.32-67.46-.17-97.99.32-69.49.39-138.98.19-208.47-.03-8.71.85-15.68,2.65-20.91,13.68-39.84,70.62-46.05,90.85-8.47,2.82,5.22,5.66,14.9,8.49,29.04,18.29,91.01,36.58,182.02,54.88,273.03,1.78,8.83,12.67,7.12,14.57-2.27,18.23-90.19,36.47-180.38,54.73-270.57,3.09-15.31,6.33-25.75,9.7-31.33,21.56-35.69,76.89-28.28,89.72,10.95,1.88,5.78,2.82,13.89,2.82,24.36-.06,100.88-.06,201.81-.02,302.79,0,1.15-.93,2.08-2.08,2.08h-30.29c-.84,0-1.53-.68-1.53-1.53-.01-103.9-.07-207.89-.17-311.96-.02-13.49-18.03-21.12-26.84-12.86-2.39,2.25-4.17,6.23-5.34,11.97-19.19,93.81-38.33,187.6-57.42,281.37-4.02,19.8-17.43,34.65-37.87,36.39-16.69,1.42-34.12-8.66-40.58-24.49-1.02-2.5-2.65-9.32-4.91-20.46-18.74-92.41-37.47-184.82-56.19-277.22Z"/>
    <path class="st0" d="M1870.23,511.34c-97.31-.49-176.93-76.32-182.1-172.88-6.82-127.39,111.94-221.81,235.58-186.31,52.95,15.19,94.51,54.01,116.62,104.59.54,1.21.79,2.19.76,2.92-.05,1.4-1.09,2.52-2.37,2.52h-32.47c-.85,0-1.47-.37-1.86-1.12-32.68-63.88-102.86-96.21-171.84-78.01-102.62,27.05-143.36,148.97-81.65,233.27,28.47,38.91,72.08,60.79,120.44,60.62,57.83-.21,106.01-31.16,133.04-82.27.4-.76,1.02-1.14,1.89-1.14h33.4c1.02,0,1.84.83,1.84,1.83,0,.24-.05.49-.15.71-29.42,69.5-94.77,115.63-171.12,115.27Z"/>
    <path class="st0" d="M4309.48,303.32l78.6-154.62c.48-.93,1.24-1.4,2.27-1.4h33.15c1.3,0,2.35,1.05,2.35,2.35,0,.37-.09.73-.25,1.06-32.44,63.22-64.85,126.52-97.24,189.91-1.45,2.85-2.18,5.88-2.18,9.09.03,51.94.04,103.9.02,155.9,0,.98-.8,1.78-1.78,1.78h-30.54c-.87,0-1.57-.69-1.57-1.55.01-51.1,0-102.29-.02-153.54,0-3.16-.72-6.14-2.16-8.94-33.06-64.67-65.99-129.16-98.81-193.45-.43-.84-.1-1.88.74-2.31.24-.12.51-.19.78-.19l34.42-.15c.76,0,1.31.34,1.65,1.02l78.96,155.05c.54,1.04,1.07,1.04,1.61,0Z"/>
    <rect class="st0" x="1611.79" y="147.83" width="33.89" height="359.58" rx="2.08" ry="2.08"/>
    <path class="st0" d="M2112.2,347.02v158.16c0,1.22-.99,2.2-2.2,2.2h-29.48c-1.22,0-2.2-.99-2.2-2.2h0V150.03c0-1.22.99-2.2,2.2-2.2h29.48c1.22,0,2.2.99,2.2,2.2v158.69c0,1.22.99,2.2,2.2,2.2h129.57c1.22,0,2.2-.99,2.2-2.2v-158.69c0-1.22.99-2.2,2.2-2.2h30.01c1.22,0,2.2.99,2.2,2.2v355.15c0,1.22-.99,2.2-2.2,2.2h-30.01c-1.22,0-2.2-.99-2.2-2.2h0v-158.16c0-1.22-.99-2.2-2.2-2.2h-129.57c-1.22,0-2.2.99-2.2,2.2Z"/>
    <path class="st0" d="M2669.85,507.28c-31.48-.15-58.67-20.25-67.97-50.05-1.98-6.34-2.97-15.82-2.99-28.45-.06-65.65-.06-131.31-.02-196.99,0-15.98,1.07-27.38,3.2-34.19,6.86-21.82,25.46-40.1,47.47-46.77,6.35-1.93,16.53-2.92,30.52-2.94,34.86-.1,69.78-.11,104.74-.04.54.01.97.45.97,1v31.86c0,.85-.69,1.55-1.55,1.55h-110.29c-17.96,0-33,7.9-39.04,25.16-1.82,5.2-2.73,15-2.71,29.4.01,22.23.04,44.46.06,66.7,0,2.41.31,4.5.93,6.27.28.76.83,1.14,1.63,1.14h149.37c1.06,0,1.59.53,1.59,1.59v30.97c0,.89-.44,1.33-1.33,1.33h-148.97c-1.52,0-2.75,1.23-2.75,2.75.08,22.41.15,44.1-.64,67.78-1.19,35.46,6.55,58.12,46.47,58.14h105.61c1.07,0,1.61.54,1.61,1.61v31.12c0,.73-.37,1.11-1.1,1.12-38.34.13-76.61.11-114.82-.06Z"/>
    <path class="st0" d="M2894.88,507.32c-31.52-.11-58.93-20.44-68.14-50.22-2.2-7.15-3.31-20.07-3.33-38.76-.07-89.56-.08-179.17-.02-268.86,0-.91.74-1.65,1.65-1.65h31.05c.75,0,1.12.37,1.12,1.12.11,148.67.12,242.36.02,281.08-.08,30.84,17.96,43.63,46.03,43.53,35.03-.11,70.1-.12,105.19-.02,1.92,0,2.87.97,2.86,2.9l-.25,30.01c0,.49-.4.89-.89.89-38.49.1-76.92.09-115.29-.02Z"/>
    <path class="st0" d="M3170.57,309.1c-.42.54.09,1.27,1.14,1.63.37.12.76.19,1.15.19h128.08c2.51,0,3.77-1.26,3.77-3.77v-158.01c0-.88.44-1.31,1.33-1.31h31.43c.75,0,1.12.37,1.12,1.12v357.03c0,.77-.63,1.4-1.4,1.4h-31.09c-.93,0-1.4-.47-1.4-1.4v-157.93c0-1.79-1.45-3.24-3.24-3.24h-128.25c-1.57,0-2.84,1.27-2.84,2.84l-.25,157.65c0,1.38-.69,2.08-2.08,2.08h-29.55c-1.2,0-2.18-.98-2.18-2.18h0V149.23c0-.77.62-1.4,1.38-1.4h31.24c.85,0,1.27.42,1.27,1.27v156.55c0,1.02,1.12,2.48.36,3.45Z"/>
    <path class="st0" d="M3410.22,310.18c.15.44.58.74,1.06.74h150.26c.88,0,1.59.71,1.59,1.59h0v30.71c0,.88-.71,1.59-1.59,1.59h-148.82c-1.75,0-3.18,1.42-3.18,3.18.06,23.65.04,47.62-.04,71.89-.06,14.08.99,23.9,3.13,29.46,7.37,19.23,23.53,24.23,43.57,24.19,34.91-.07,69.87-.08,104.89-.02,1.12,0,2.03.92,2.03,2.05v30.27c0,.85-.69,1.55-1.55,1.55-37.89.03-75.85,0-113.89-.06-31.03-.04-59.67-20.02-68.65-49.86-2.2-7.31-3.31-20.12-3.33-38.4-.07-65.52-.11-131.04-.11-196.56,0-26.6,10.52-47.35,31.56-62.23,14.28-10.1,28.17-12.33,47.15-12.37,35.71-.08,71.47-.1,107.28-.04.84,0,1.53.69,1.53,1.55v31.26c0,.86-.69,1.56-1.55,1.57-35.74.06-71.42.05-107.05-.02-9.01-.03-15.91.9-20.69,2.8-19.91,7.82-24.34,23.74-24.3,44.61.06,25.87.11,51.74.17,77.61,0,1.02.17,2.01.51,2.97Z"/>
    <path class="st0" d="M3672.24,507.34c-31.62-.04-59.18-20.5-68.35-50.43-2.06-6.71-3.1-17.38-3.11-32.01-.07-91.8-.08-183.64-.02-275.53,0-.85.69-1.55,1.55-1.55h30.76c.85,0,1.55.7,1.55,1.57.03,92.25.03,184.45,0,276.61-.02,31.84,12.62,47.47,45.54,47.47,35.08.01,70.22.02,105.42.02,1.45,0,2.63,1.18,2.63,2.63v29.19c0,1.13-.92,2.05-2.05,2.05-37.72.06-75.68.05-113.89-.02Z"/>
    <path class="st0" d="M2057.85,632.93c34.04-29.76,81.25-6.95,81.34,37.39.04,23.72.04,47.42,0,71.11,0,.72-.36,1.08-1.08,1.08h-10.97c-.73,0-1.11-.37-1.12-1.1-.1-21.21-.11-42.39-.02-63.54.04-11.07-.94-19.03-2.94-23.87-11.88-28.76-54.1-27.3-64.41,2.5-1.38,4.02-2.07,10.62-2.05,19.78.04,21.72.04,43.44,0,65.18,0,.71-.35,1.06-1.06,1.06h-11.1c-.86,0-1.29-.43-1.29-1.29,0-49.28.11-98.3.32-147.04,0-2.52-1.25-7.67-.4-11.52.17-.75.64-1.12,1.4-1.12h10.57c1.06,0,1.59.53,1.59,1.59v49.25c0,.42.36.76.78.75.17,0,.34-.07.47-.18Z"/>
    <path class="st0" d="M2438.52,742.39c-20.63,1.82-34.46-13.15-34.5-33.15-.07-41.66-.09-83.97-.06-126.94,0-.42.35-.76.78-.76l11.14-.02c.89-.01,1.33.42,1.33,1.31v36.81c0,1.41.71,2.12,2.12,2.12h18.79c.89,0,1.33.44,1.33,1.33v11.42c0,.73-.37,1.1-1.1,1.1h-19.8c-.86,0-1.29.43-1.29,1.29-.07,22.27-.09,44.47-.06,66.62.02,15.36,4.22,25.93,21.22,25.35.69-.01,1.04.33,1.04,1.02v11.48c0,.62-.31.96-.93,1.02Z"/>
    <path class="st0" d="M3420.71,631.8c0,1.27.49,1.5,1.48.7,34.02-27.77,80.96-7.46,81.06,36.71.07,24.09.08,48.17.02,72.23,0,.71-.36,1.06-1.08,1.06h-10.97c-.75,0-1.12-.37-1.12-1.12-.08-21.56-.09-43.11-.02-64.65.03-10.24-.78-17.48-2.41-21.73-13.62-35.54-66.7-24.85-66.91,12.96-.13,24.44-.12,48.87.02,73.29,0,.83-.41,1.25-1.23,1.25h-10.76c-.89,0-1.33-.44-1.33-1.33v-158.31c0-.89.44-1.33,1.33-1.33h10.8c.76,0,1.14.38,1.14,1.14l-.02,49.14Z"/>
    <path class="st0" d="M1863.91,722.38c-.33-.4-.91-.46-1.31-.13-.22.18-.35.46-.34.74v59.22c0,.71-.35,1.06-1.06,1.06h-11.08c-.73,0-1.1-.36-1.1-1.08-.01-32.55-.01-65.09,0-97.63,0-9.26.9-16.69,2.69-22.28,15.63-48.63,80.93-58.06,110.52-16.06,15.08,21.39,15,52.83-2.12,73.92-25.06,30.86-70.39,32.7-96.21,2.22ZM1959.82,681.77c0-26.94-21.84-48.78-48.78-48.78s-48.78,21.84-48.78,48.78c0,26.94,21.84,48.78,48.78,48.78h0c26.94,0,48.78-21.84,48.78-48.78h0Z"/>
    <path class="st0" d="M2333.87,681.88c0,34.44-27.92,62.36-62.36,62.36s-62.36-27.92-62.36-62.36c0-34.44,27.92-62.36,62.36-62.36h0c34.44,0,62.36,27.92,62.36,62.36h0ZM2320.27,681.79c0-26.94-21.84-48.78-48.78-48.78s-48.78,21.84-48.78,48.78c0,26.94,21.84,48.78,48.78,48.78h0c26.94,0,48.78-21.84,48.78-48.78Z"/>
    <path class="st0" d="M2634.01,681.88c0,34.45-27.93,62.38-62.38,62.38s-62.38-27.93-62.38-62.38,27.93-62.38,62.38-62.38,62.38,27.93,62.38,62.38ZM2620.41,681.77c0-26.94-21.84-48.78-48.78-48.78s-48.78,21.84-48.78,48.78c0,26.94,21.84,48.78,48.78,48.78h0c26.94,0,48.78-21.84,48.78-48.78Z"/>
    <path class="st0" d="M2814.83,723.31c.07-.51-.3-.98-.82-1.04-.31-.04-.63.08-.84.32-34.21,39.14-99.11,22.26-108.3-29.46-9.87-55.56,54.01-95.78,98.71-61.15,29.57,22.92,26.01,55.6,24.72,88.79-1.65,42.47-32.28,64.77-73.58,62.21-.58-.03-.86-.33-.85-.91l.19-11.52c0-.64.32-.97.97-1,6.88-.21,14.64.66,20.95-.95,23.21-5.87,36.16-20.97,38.85-45.29ZM2814.88,681.79c0-26.93-21.83-48.76-48.76-48.76h0c-26.93,0-48.76,21.83-48.76,48.76s21.83,48.76,48.76,48.76,48.76-21.83,48.76-48.76h0Z"/>
    <path class="st0" d="M2898.18,660.04c.36-25.93,23.98-43.38,49.03-40.08.75.1,1.12.52,1.12,1.27v10.63c0,.86-.42,1.25-1.27,1.16-16.14-1.44-30.29,5.36-34.44,21.9-.97,3.9-1.3,11.26-.97,22.09.66,21.54-.06,42.79.3,64.2.01.85-.4,1.27-1.25,1.27h-11.54c-.69,0-1.04-.34-1.04-1.02-.21-35.56-.19-62.7.06-81.44Z"/>
    <path class="st0" d="M3129.44,722.9c0-.43-.36-.78-.79-.78-.21,0-.42.09-.57.25-29.57,33.4-81.44,27.92-102.86-12.09-13.68-25.61-6.21-60.11,17.43-77.97,26.84-20.31,62.68-16.01,85.38,8.85,12.9,14.13,15.02,29.48,15.12,50.14.08,16.68.08,33.36,0,50.05,0,.76-.38,1.14-1.14,1.14h-10.99c-1.06,0-1.59-.53-1.59-1.59v-18ZM3129.38,681.79c0-26.92-21.82-48.74-48.74-48.74s-48.74,21.82-48.74,48.74h0c0,26.92,21.82,48.74,48.74,48.74h0c26.92,0,48.74-21.82,48.74-48.74Z"/>
    <path class="st0" d="M3226.35,722.88v59.33c0,.71-.35,1.06-1.06,1.06h-11.1c-.72,0-1.08-.37-1.08-1.1.01-29.74,0-59.48-.02-89.22-.01-14.56.92-24.86,2.8-30.9,13.77-44.35,69.54-55.3,102.29-25.52,24.02,21.84,26.1,62.63,3.07,87.54-25.67,27.79-68.65,26.5-93.35-1.76-.33-.36-.89-.41-1.25-.09-.19.17-.3.41-.3.66ZM3323.99,681.79c0-26.94-21.84-48.78-48.78-48.78s-48.78,21.84-48.78,48.78c0,26.94,21.84,48.78,48.78,48.78s48.78-21.84,48.78-48.78h0Z"/>
    <path class="st0" d="M3588.06,690.05c1.33,15.21,13.64,29.44,26.41,35.5,25.18,11.97,52.74,1.5,65.68-23.34.35-.68.91-1.02,1.67-1.02h10.02c2.88,0,3.68,1.29,2.39,3.88-13.39,26.82-38.74,43.7-68.65,38.47-63.1-10.97-71.13-97.71-11.1-120.23,44.1-16.54,85.66,19.34,83.58,64.29-.02.5-.43.89-.93.89l-107.83.21c-.92,0-1.33.45-1.25,1.36ZM3590.28,675.25h90.28c1.5,0,2.71-1.22,2.71-2.71,0-.19-.02-.38-.06-.57-11.18-51.66-83.09-51.34-95.36.23-.48,2.03.33,3.05,2.44,3.05Z"/>
    <path class="st0" d="M3776.91,635.38c10.05-12.34,23.5-17.5,40.33-15.48.73.09,1.27.73,1.23,1.46l-.49,10.38c-.04.79-.45,1.18-1.23,1.17-14.02-.19-27.85,3.13-33.21,17.28-1.53,4.02-2.28,12.01-2.27,23.96.04,22.41.04,44.83,0,67.27,0,.69-.34,1.04-1.02,1.04l-10.91.13c-.82.01-1.23-.39-1.23-1.21-.16-28.72-.14-57.42.04-86.1.04-6.17,2.96-12.8,8.75-19.89Z"/>
  </g>
</svg>