<?xml version="1.0" encoding="UTF-8"?>
<svg id="Layer_1" xmlns="http://www.w3.org/2000/svg" version="1.1" viewBox="0 0 2081.7 1564.15">
  <!-- Generator: Adobe Illustrator 29.5.1, SVG Export Plug-In . SVG Version: 2.1.0 Build 141)  -->
  <defs>
    <style>
      .st0 {
        fill: #fff;
      }
    </style>
  </defs>
  <path class="st0" d="M1278.49,165.55c13.35,13.37,26.25,24.34,45.87,24.37,34.07.06,68.14.08,102.21.05,11.52-.02,19.94.49,25.25,1.52,32.86,6.35,58.93,32.44,65.85,65.02,1.13,5.33,1.7,12.79,1.7,22.39,0,211.19.01,422.37.01,633.55,0,8.73-.55,15.62-1.66,20.68-6.28,28.64-28.66,52.16-57.74,58.8-5.33,1.22-13.34,1.84-24.03,1.86-14.32.03-28.63.05-42.95.04-11.62,0-20.03-.54-25.22-1.61-30.43-6.21-54.49-31.16-59.88-61.58-.88-4.92-1.32-13.33-1.32-25.25,0-20.8-.03-41.6-.06-62.41-.02-10.41-.62-18.29-1.8-23.64-6.23-28.07-29.89-52.28-57.81-57.88-18.14-3.64-39.1-3.61-54.84,6.3-3.58,2.26-8.72,6.74-15.42,13.44-37.91,37.97-75.89,75.88-113.94,113.73-13.16,13.09-29.89,14.07-43.5.47-35.58-35.61-71.19-71.2-106.81-106.78-8.15-8.15-14.48-13.7-18.99-16.66-44.99-29.53-105.1-3.91-116.56,48.14-1.14,5.2-1.71,12.58-1.72,22.14v73.66c0,36.84-24.68,68.14-60.66,76.16-5.14,1.15-12.32,1.73-21.54,1.75-16.06.03-32.13.03-48.19.01-9.53-.02-16.9-.6-22.13-1.76-28.75-6.35-51.98-29.05-58.58-58.01-1.16-5.09-1.74-12.43-1.74-22.02-.02-210.06-.02-420.13-.01-630.19,0-11.44.55-19.86,1.65-25.24,6.7-32.85,33.31-58.33,65.61-64.98,5.42-1.11,12.99-1.67,22.69-1.66,34.1.04,68.2.03,102.3-.04,17.14-.03,29.68-5.92,41.81-17.88,28-27.62,55.86-55.37,83.6-83.25,16.22-16.32,26.77-22.3,49.14-22.31,76.43-.03,152.85-.04,229.26-.01,17.85,0,29.47,8.42,42.77,21.71,25.81,25.78,51.61,51.57,77.39,77.37ZM1258.47,443.96c0-120.2-97.44-217.63-217.63-217.63-120.2,0-217.63,97.44-217.63,217.63s97.44,217.63,217.63,217.63,217.63-97.44,217.63-217.63ZM1440.2,306.43c0-20.56-16.67-37.23-37.23-37.23h0c-20.56,0-37.23,16.67-37.23,37.23h0c0,20.56,16.67,37.23,37.23,37.23h0c20.56,0,37.23-16.67,37.23-37.23h0Z"/>
  <circle class="st0" cx="1040.83" cy="443.96" r="150.98"/>
  <path class="st0" d="M189.49,1313.42c.67-.48,1.14-1.2,1.29-2,11.41-56.63,22.87-113.22,34.38-169.76,1-4.9,2.32-8.73,3.97-11.5,13.05-21.89,47.36-18.7,54.55,6.38.97,3.4,1.46,9.48,1.46,18.24.02,58.81.02,117.67,0,176.6,0,.72-.58,1.3-1.3,1.3h-18.26c-.46,0-.68-.23-.68-.68-.03-59.96-.03-119.9,0-179.83,0-9.58-.47-16.51-11.74-16.48-5.09.03-6.9,4.14-7.88,8.94-11.09,54.7-22.23,109.4-33.41,164.1-1.4,6.86-2.93,11.63-4.59,14.3-11.81,19.07-40.21,13.83-44.66-8.1-11.42-56.25-22.82-112.51-34.21-168.77-1.65-8.12-4.48-13.14-13.68-9.46-4.76,1.91-5.98,4.85-5.98,10.06-.02,61.64-.02,123.3-.01,184.99,0,.52-.41.94-.92.94h-18.42c-.52,0-.94-.42-.94-.94.03-60.34.02-120.74-.01-181.19,0-6.52.57-11.51,1.71-14.96,7.88-23.89,41.17-27.3,54.03-5.79,1.72,2.9,3.16,7.2,4.32,12.9,11.22,55.61,22.4,111.23,33.53,166.86.8,4,3.42,6.71,7.45,3.85Z"/>
  <path class="st0" d="M839.97,1267.13h-69.27c-1.12,0-2.1.77-2.37,1.86l-15.61,62.96c-.11.43-.49.73-.92.73h-18.14c-.74,0-1.34-.6-1.34-1.34,0-.11.01-.21.04-.32,16.11-66.43,32.08-132.15,47.91-197.16,5.21-21.38,34.6-24.78,46.42-7.11,1.77,2.64,3.26,6.44,4.47,11.41,15.71,64.32,31.41,128.67,47.11,193.04.15.64-.24,1.28-.88,1.44-.09.02-.19.03-.29.03h-18.64c-.4,0-.75-.27-.85-.66l-15.76-63.42c-.22-.87-1-1.48-1.89-1.48ZM810.73,1139.77c-.99-4.07-5.79-5.02-8.83-2.99-2.06,1.38-2.43,4.22-3,6.52-8.4,33.99-16.75,68.06-25.07,102.24-.27,1.09.16,1.63,1.28,1.63h61.13c.31,0,.56-.25.56-.56,0-.04,0-.09-.01-.13-8.73-35.63-17.42-71.21-26.05-106.72Z"/>
  <path class="st0" d="M1673.3,1142.02c-1.77-8.74-13.06-7.8-17.08-1.93-1.08,1.58-1.62,3.83-1.62,6.74.03,61.3.04,122.62.01,183.97,0,1.25-.62,1.87-1.86,1.87h-17.12c-.9,0-1.34-.45-1.33-1.34.2-19.78-.19-40.35-.1-58.61.19-41.56.23-83.12.11-124.68-.02-5.21.51-9.38,1.58-12.5,8.18-23.83,42.24-27.54,54.34-5.07,1.69,3.12,3.38,8.91,5.08,17.37,10.94,54.43,21.88,108.87,32.82,163.3,1.06,5.28,7.58,4.26,8.72-1.36,10.9-53.94,21.82-107.89,32.74-161.83,1.85-9.16,3.78-15.4,5.8-18.74,12.9-21.35,45.99-16.91,53.66,6.55,1.12,3.45,1.69,8.31,1.69,14.57-.03,60.34-.04,120.7-.01,181.1,0,.69-.56,1.24-1.24,1.24h-18.12c-.5,0-.91-.41-.91-.91,0-62.14-.04-124.34-.1-186.58-.01-8.07-10.78-12.63-16.05-7.69-1.43,1.34-2.49,3.73-3.19,7.16-11.48,56.11-22.93,112.2-34.34,168.29-2.41,11.85-10.43,20.73-22.65,21.76-9.98.85-20.41-5.18-24.27-14.64-.61-1.49-1.59-5.57-2.94-12.24-11.21-55.27-22.41-110.54-33.61-165.81Z"/>
  <path class="st0" d="M464.74,1335.06c-58.2-.29-105.82-45.65-108.91-103.4-4.08-76.19,66.95-132.67,140.9-111.43,31.67,9.08,56.53,32.31,69.75,62.56.32.73.47,1.31.46,1.75-.03.84-.65,1.51-1.42,1.51h-19.42c-.51,0-.88-.22-1.11-.67-19.55-38.21-61.52-57.54-102.78-46.66-61.38,16.18-85.74,89.1-48.84,139.52,17.03,23.27,43.11,36.36,72.03,36.26,34.59-.13,63.41-18.64,79.57-49.21.24-.46.61-.68,1.13-.68h19.98c.61,0,1.1.49,1.1,1.1,0,.15-.03.29-.09.42-17.6,41.57-56.68,69.16-102.35,68.94Z"/>
  <path class="st0" d="M1923.66,1210.64l47.01-92.48c.29-.56.74-.84,1.36-.84h19.83c.78,0,1.41.63,1.41,1.41,0,.22-.05.44-.15.63-19.4,37.81-38.79,75.67-58.16,113.59-.87,1.71-1.31,3.52-1.3,5.43.02,31.06.02,62.14.01,93.24,0,.59-.48,1.06-1.06,1.06h-18.27c-.52,0-.94-.41-.94-.92,0-30.57,0-61.18-.01-91.83,0-1.89-.43-3.67-1.29-5.35-19.77-38.68-39.47-77.25-59.1-115.7-.26-.5-.06-1.12.44-1.38.14-.07.31-.11.47-.11l20.59-.09c.46,0,.79.2.99.61l47.23,92.73c.32.63.64.63.96,0Z"/>
  <rect class="st0" x="310.17" y="1117.64" width="20.27" height="215.06" rx="1.24" ry="1.24"/>
  <path class="st0" d="M609.46,1236.77v94.6c0,.73-.59,1.32-1.32,1.32h-17.63c-.73,0-1.32-.59-1.32-1.32h0v-212.42c0-.73.59-1.32,1.32-1.32h17.63c.73,0,1.32.59,1.32,1.32v94.91c0,.73.59,1.32,1.32,1.32h77.49c.73,0,1.32-.59,1.32-1.32v-94.91c0-.73.59-1.32,1.32-1.32h17.95c.73,0,1.32.59,1.32,1.32v212.42c0,.73-.59,1.32-1.32,1.32h-17.95c-.73,0-1.32-.59-1.32-1.32h0v-94.6c0-.73-.59-1.32-1.32-1.32h-77.49c-.73,0-1.32.59-1.32,1.32Z"/>
  <path class="st0" d="M942.99,1332.62c-18.83-.09-35.09-12.11-40.65-29.94-1.18-3.79-1.78-9.46-1.79-17.01-.03-39.26-.04-78.54-.01-117.82,0-9.56.64-16.38,1.91-20.45,4.1-13.05,15.23-23.98,28.39-27.97,3.8-1.16,9.89-1.74,18.26-1.76,20.85-.06,41.73-.07,62.65-.03.32,0,.58.27.58.6v19.05c0,.51-.41.92-.92.92h-65.97c-10.74,0-19.74,4.73-23.35,15.05-1.09,3.11-1.63,8.97-1.62,17.58,0,13.29.02,26.59.04,39.89,0,1.44.19,2.69.56,3.75.17.46.49.68.98.68h89.34c.63,0,.95.32.95.95v18.52c0,.53-.27.8-.8.8h-89.1c-.91,0-1.65.74-1.65,1.65.05,13.4.09,26.38-.38,40.54-.71,21.21,3.91,34.76,27.79,34.78h63.17c.64,0,.96.32.96.96v18.61c0,.44-.22.66-.66.67-22.93.08-45.82.06-68.68-.04Z"/>
  <path class="st0" d="M1077.58,1332.65c-18.85-.06-35.24-12.23-40.75-30.04-1.32-4.27-1.98-12-1.99-23.18-.04-53.56-.05-107.16-.01-160.8,0-.55.44-.99.99-.99h18.57c.45,0,.67.22.67.67.07,88.92.07,144.95.01,168.11-.05,18.45,10.74,26.1,27.53,26.03,20.95-.07,41.92-.07,62.91-.01,1.15,0,1.72.58,1.71,1.74l-.15,17.95c0,.29-.24.53-.53.53-23.02.06-46.01.05-68.96-.01Z"/>
  <path class="st0" d="M1242.48,1214.1c-.25.33.06.76.68.98.22.07.46.11.69.11h76.61c1.5,0,2.26-.75,2.26-2.26v-94.51c0-.52.27-.79.8-.79h18.8c.45,0,.67.22.67.67v213.54c0,.46-.37.84-.84.84h-18.6c-.56,0-.84-.28-.84-.84v-94.46c0-1.07-.87-1.94-1.94-1.94h-76.71c-.94,0-1.7.76-1.7,1.7l-.15,94.29c0,.83-.41,1.24-1.24,1.24h-17.67c-.72,0-1.3-.58-1.3-1.3h0v-212.91c0-.46.37-.84.82-.84h18.69c.51,0,.76.25.76.76v93.63c0,.61.67,1.48.22,2.06Z"/>
  <path class="st0" d="M1385.81,1214.74c.09.27.35.44.63.44h89.87c.52,0,.95.43.95.95h0v18.37c0,.52-.43.95-.95.95h-89.01c-1.05,0-1.9.85-1.9,1.9.03,14.15.03,28.48-.03,43-.03,8.42.59,14.29,1.87,17.62,4.41,11.5,14.07,14.49,26.06,14.47,20.88-.04,41.79-.05,62.74-.01.67,0,1.22.55,1.22,1.23v18.1c0,.51-.41.92-.92.92-22.66.02-45.37,0-68.12-.04-18.56-.03-35.69-11.97-41.06-29.82-1.32-4.37-1.98-12.03-1.99-22.97-.04-39.19-.06-78.38-.06-117.56,0-15.91,6.29-28.32,18.88-37.22,8.54-6.04,16.85-7.37,28.2-7.4,21.36-.05,42.75-.06,64.17-.03.5,0,.91.41.91.92v18.7c0,.51-.41.93-.92.94-21.38.03-42.72.03-64.03-.01-5.39-.02-9.51.54-12.38,1.67-11.91,4.67-14.56,14.2-14.53,26.68.03,15.47.07,30.95.1,46.42,0,.61.1,1.2.3,1.77Z"/>
  <path class="st0" d="M1542.52,1332.66c-18.91-.03-35.4-12.26-40.88-30.16-1.23-4.01-1.85-10.39-1.86-19.14-.04-54.91-.05-109.84-.01-164.79,0-.51.41-.92.92-.92h18.39c.51,0,.92.42.92.94.02,55.18.02,110.32,0,165.44-.01,19.04,7.55,28.39,27.24,28.39,20.98,0,42,.01,63.05.01.87,0,1.57.7,1.57,1.57v17.46c0,.68-.55,1.23-1.23,1.23-22.56.03-45.27.03-68.12-.01Z"/>
  <path class="st0" d="M576.96,1407.77c20.36-17.8,48.6-4.16,48.65,22.36.03,14.19.03,28.36,0,42.53,0,.43-.22.65-.65.65h-6.56c-.44,0-.66-.22-.67-.66-.06-12.69-.06-25.35-.01-38.01.03-6.62-.56-11.38-1.76-14.28-7.11-17.2-32.36-16.33-38.53,1.49-.83,2.41-1.24,6.35-1.23,11.83.03,12.99.03,25.98,0,38.98,0,.42-.21.63-.63.63h-6.64c-.52,0-.77-.26-.77-.77,0-29.48.06-58.79.19-87.95,0-1.51-.75-4.59-.24-6.89.1-.45.38-.67.84-.67h6.32c.63,0,.95.32.95.95v29.45c0,.25.21.45.46.45.1,0,.2-.04.28-.11Z"/>
  <path class="st0" d="M804.64,1473.25c-12.34,1.09-20.61-7.87-20.64-19.83-.04-24.91-.05-50.22-.04-75.92,0-.25.21-.46.47-.46h6.66c.53-.02.8.24.8.77v22.02c0,.84.42,1.27,1.27,1.27h11.24c.53,0,.8.27.8.8v6.83c0,.44-.22.66-.66.66h-11.85c-.52,0-.77.26-.77.77-.04,13.32-.05,26.6-.04,39.84.01,9.18,2.52,15.51,12.69,15.16.41,0,.62.19.62.61v6.87c0,.37-.19.57-.56.61Z"/>
  <path class="st0" d="M1392.08,1407.1c0,.76.3.9.89.42,20.35-16.61,48.42-4.46,48.48,21.95.04,14.41.05,28.81.01,43.2,0,.42-.22.63-.65.63h-6.56c-.45,0-.67-.22-.67-.67-.05-12.9-.05-25.78-.01-38.66.02-6.12-.46-10.46-1.44-13-8.15-21.26-39.89-14.86-40.02,7.75-.08,14.62-.07,29.23.01,43.83,0,.5-.24.75-.73.75h-6.44c-.53,0-.8-.27-.8-.8v-94.69c0-.53.27-.8.8-.8h6.46c.46,0,.68.23.68.68v29.39Z"/>
  <path class="st0" d="M460.96,1461.27c-.2-.24-.55-.27-.78-.08-.13.11-.21.27-.2.44v35.42c0,.42-.21.63-.63.63h-6.63c-.44,0-.66-.22-.66-.65,0-19.47,0-38.93,0-58.39,0-5.54.54-9.98,1.61-13.33,9.35-29.09,48.41-34.72,66.1-9.6,9.02,12.8,8.97,31.6-1.27,44.21-14.99,18.46-42.1,19.56-57.54,1.33ZM518.33,1436.99c0-16.11-13.06-29.18-29.18-29.18s-29.18,13.06-29.18,29.18c0,16.11,13.06,29.18,29.18,29.18h0c16.11,0,29.18-13.06,29.18-29.18h0Z"/>
  <path class="st0" d="M742.04,1437.05c0,20.6-16.7,37.3-37.3,37.3s-37.3-16.7-37.3-37.3,16.7-37.3,37.3-37.3h0c20.6,0,37.3,16.7,37.3,37.3h0ZM733.91,1437c0-16.11-13.06-29.18-29.18-29.18s-29.18,13.06-29.18,29.18c0,16.11,13.06,29.18,29.18,29.18h0c16.11,0,29.18-13.06,29.18-29.18Z"/>
  <path class="st0" d="M921.56,1437.05c0,20.61-16.7,37.31-37.31,37.31s-37.31-16.7-37.31-37.31,16.7-37.31,37.31-37.31,37.31,16.7,37.31,37.31ZM913.42,1436.99c0-16.11-13.06-29.18-29.18-29.18s-29.18,13.06-29.18,29.18c0,16.11,13.06,29.18,29.18,29.18h0c16.11,0,29.18-13.06,29.18-29.18Z"/>
  <path class="st0" d="M1029.71,1461.83c.04-.31-.18-.58-.49-.62-.19-.02-.37.05-.5.19-20.46,23.41-59.28,13.31-64.77-17.62-5.9-33.23,32.31-57.29,59.04-36.57,17.69,13.71,15.56,33.26,14.78,53.11-.99,25.4-19.31,38.74-44.01,37.21-.35-.02-.52-.2-.51-.54l.11-6.89c0-.38.19-.58.58-.6,4.12-.13,8.75.39,12.53-.57,13.88-3.51,21.63-12.54,23.23-27.09ZM1029.73,1437c0-16.11-13.06-29.16-29.16-29.16h0c-16.11,0-29.16,13.06-29.16,29.16s13.06,29.16,29.16,29.16,29.16-13.06,29.16-29.16h0Z"/>
  <path class="st0" d="M1079.56,1423.99c.22-15.51,14.34-25.95,29.33-23.97.45.06.67.31.67.76v6.36c0,.52-.25.75-.76.7-9.65-.86-18.12,3.21-20.6,13.1-.58,2.33-.78,6.74-.58,13.21.39,12.88-.04,25.59.18,38.4,0,.51-.24.76-.75.76h-6.9c-.41,0-.62-.2-.62-.61-.13-21.27-.11-37.5.04-48.71Z"/>
  <path class="st0" d="M1217.88,1461.59c0-.26-.21-.47-.47-.47-.13,0-.25.05-.34.15-17.69,19.98-48.71,16.7-61.52-7.23-8.18-15.32-3.71-35.95,10.43-46.63,16.05-12.15,37.49-9.58,51.07,5.3,7.72,8.45,8.98,17.63,9.05,29.99.05,9.97.05,19.95,0,29.94,0,.46-.23.68-.68.68h-6.58c-.63,0-.95-.32-.95-.95v-10.77ZM1217.84,1437c0-16.1-13.05-29.15-29.15-29.15s-29.15,13.05-29.15,29.15h0c0,16.1,13.05,29.15,29.15,29.15h0c16.1,0,29.15-13.05,29.15-29.15Z"/>
  <path class="st0" d="M1275.83,1461.58v35.48c0,.42-.21.63-.63.63h-6.64c-.43,0-.65-.22-.65-.66,0-17.79,0-35.57-.01-53.36,0-8.71.55-14.87,1.67-18.48,8.23-26.53,41.59-33.08,61.18-15.27,14.37,13.06,15.61,37.46,1.84,52.36-15.35,16.62-41.06,15.85-55.83-1.05-.2-.22-.53-.24-.75-.05-.12.1-.18.24-.18.4ZM1334.24,1437c0-16.11-13.06-29.18-29.18-29.18s-29.18,13.06-29.18,29.18c0,16.11,13.06,29.18,29.18,29.18s29.18-13.06,29.18-29.18h0Z"/>
  <path class="st0" d="M1492.18,1441.94c.8,9.1,8.16,17.61,15.8,21.23,15.06,7.16,31.54.9,39.29-13.96.21-.41.54-.61,1-.61h5.99c1.72,0,2.2.77,1.43,2.32-8.01,16.04-23.17,26.14-41.06,23.01-37.74-6.56-42.54-58.44-6.64-71.91,26.38-9.89,51.23,11.57,49.99,38.45-.01.3-.26.53-.56.53l-64.5.13c-.55,0-.8.27-.75.81ZM1493.51,1433.09h53.99c.9,0,1.62-.73,1.62-1.62,0-.11-.01-.23-.04-.34-6.69-30.9-49.7-30.71-57.03.14-.29,1.22.2,1.82,1.46,1.82Z"/>
  <path class="st0" d="M1605.13,1409.24c6.01-7.38,14.05-10.47,24.12-9.26.44.05.76.43.73.87l-.29,6.21c-.03.47-.27.71-.73.7-8.39-.11-16.66,1.87-19.86,10.34-.91,2.41-1.36,7.18-1.36,14.33.03,13.4.03,26.82,0,40.24,0,.41-.2.62-.61.62l-6.52.08c-.49,0-.73-.23-.73-.72-.09-17.18-.08-34.34.03-51.5.03-3.69,1.77-7.66,5.23-11.9Z"/>
</svg>